<?xml version="1.0" standalone="no"?>
<!DOCTYPE svg PUBLIC "-//W3C//DTD SVG 20010904//EN"
 "http://www.w3.org/TR/2001/REC-SVG-20010904/DTD/svg10.dtd">
<svg version="1.0" xmlns="http://www.w3.org/2000/svg"
 width="400.000000pt" height="400.000000pt" viewBox="0 0 400.000000 400.000000"
 preserveAspectRatio="xMidYMid meet">
<metadata>
Created by potrace 1.14, written by Peter Selinger 2001-2017
</metadata>
<g transform="translate(0.000000,400.000000) scale(0.100000,-0.100000)"
fill="#000000" stroke="none">
<path d="M1868 3874 c-2 -1 -24 -5 -48 -8 -166 -21 -407 -96 -580 -182 -210
-103 -390 -248 -490 -394 -145 -213 -195 -453 -140 -676 45 -180 168 -353 297
-414 57 -27 61 -34 69 -133 10 -125 52 -221 116 -264 33 -21 31 -36 -3 -39
-52 -4 -146 -15 -169 -19 -14 -3 -38 -8 -55 -10 -44 -8 -125 -35 -166 -56 -37
-18 -55 -49 -66 -114 -7 -43 -18 -53 -106 -96 -43 -21 -94 -48 -114 -60 l-35
-22 5 -72 c8 -101 19 -123 54 -120 168 17 173 19 173 51 0 13 -1 25 -2 27 -4
5 23 47 31 47 5 0 14 -12 20 -27 7 -16 23 -40 36 -55 21 -25 28 -27 77 -23 29
3 62 7 73 9 11 2 47 7 80 10 33 4 97 15 142 25 45 10 86 15 91 12 14 -10 144
-212 174 -271 49 -96 56 -233 23 -433 -3 -17 -15 -55 -26 -84 -20 -49 -20 -53
-4 -77 23 -35 128 -113 190 -142 64 -29 159 -51 255 -58 96 -7 149 -14 228
-32 122 -27 212 -38 212 -25 0 5 8 8 18 7 33 -1 144 26 171 42 93 59 103 76
76 128 -19 36 -19 67 -1 103 16 29 100 111 115 111 19 0 20 32 1 65 l-20 35
38 1 c52 1 87 7 146 27 46 15 51 20 48 45 -4 35 4 34 23 -4 15 -29 19 -30 63
-25 103 11 264 77 388 158 l61 40 -8 42 c-12 61 -11 72 3 58 7 -7 23 -12 36
-12 30 0 128 54 170 94 46 43 139 196 138 226 -1 14 5 25 12 26 6 1 16 2 20 3
14 2 71 105 93 165 23 68 34 165 20 185 -6 9 -28 15 -57 15 -47 1 -49 0 -72
-42 -13 -24 -26 -41 -29 -38 -3 2 7 25 22 50 24 42 25 47 12 73 -19 37 -86 75
-109 62 -20 -11 -94 -114 -137 -191 -27 -47 -30 -61 -21 -77 8 -17 8 -21 -3
-21 -8 0 -71 -58 -141 -130 -70 -71 -134 -130 -144 -130 -10 0 -27 -7 -39 -15
-21 -15 -22 -14 -32 22 -15 52 -15 53 18 53 36 0 91 19 91 32 0 5 -24 39 -53
76 -44 55 -117 177 -117 194 0 3 8 15 19 26 21 25 34 27 96 10 62 -17 82 -6
160 87 86 102 113 135 138 162 19 21 19 22 -7 78 -14 32 -26 65 -26 74 0 9 25
41 55 71 30 30 55 59 55 65 0 53 -196 570 -223 587 -6 4 -31 -4 -56 -17 -24
-14 -45 -25 -46 -25 -2 0 -11 58 -21 134 -9 66 -92 286 -140 369 l-51 90 18
69 c15 55 16 75 7 92 -16 31 -229 245 -258 260 -14 7 -41 12 -60 10 -23 -1
-47 6 -70 21 -52 34 -174 67 -261 70 -48 2 -88 9 -109 20 -27 14 -65 18 -196
20 -90 1 -165 1 -166 -1z m1660 -2433 c3 -8 -1 -12 -9 -9 -7 2 -15 10 -17 17
-3 8 1 12 9 9 7 -2 15 -10 17 -17z"/>
<path d="M3630 2283 c-31 -11 -93 -44 -106 -58 -18 -18 -18 -54 2 -101 17 -42
31 -55 49 -48 16 6 44 -58 38 -88 -5 -25 20 -87 39 -99 12 -8 76 6 123 25 l32
14 -8 52 c-11 70 -25 112 -65 192 -29 58 -74 120 -85 117 -2 0 -11 -3 -19 -6z"/>
<path d="M375 1786 c-96 -27 -214 -73 -236 -93 -12 -10 -15 -25 -12 -51 5 -46
32 -130 43 -137 4 -3 35 5 69 17 57 20 60 24 58 51 -2 25 3 31 27 40 24 8 31
6 45 -11 16 -21 17 -21 66 -3 135 49 150 62 120 107 -22 34 -86 104 -94 103
-3 0 -42 -11 -86 -23z"/>
<path d="M678 1183 c-16 -4 -35 -39 -43 -83 -6 -29 12 -90 26 -90 8 0 5 -42
-6 -97 -3 -12 -17 -25 -36 -32 -31 -11 -31 -11 -26 -69 10 -97 19 -106 117
-118 78 -9 109 21 124 121 4 22 8 47 11 55 7 25 15 72 21 130 3 30 7 62 10 71
6 22 -13 69 -28 69 -6 0 -31 9 -54 21 -44 21 -86 29 -116 22z"/>
</g>
</svg>
